<?xml version="1.0" encoding="UTF-8"?><svg id="a" xmlns="http://www.w3.org/2000/svg" viewBox="0 0 100 59.09"><path d="m86.27,29.41s-.03,0-.05,0c.02-.33.05-.65.05-.98,0-7.04-5.71-12.75-12.75-12.75-2.27,0-4.4.6-6.25,1.64C63.88,7.25,54.36,0,43.14,0c-14.08,0-25.49,11.41-25.49,25.49,0,.77.04,1.53.11,2.28-.98-.21-2-.32-3.05-.32-8.12,0-14.71,6.58-14.71,14.71s6.58,14.71,14.71,14.71h20.46c-6.89-3.45-11.63-10.55-11.63-18.77,0-11.6,9.4-21,21-21s21,9.4,21,21c0,8.23-4.74,15.33-11.63,18.77h32.37c7.58,0,13.73-6.15,13.73-13.73s-6.15-13.73-13.73-13.73Zm-6.08-3.78c0,.59-.48,1.07-1.07,1.07h-8.41c-.59,0-1.07-.48-1.07-1.07v-2.9c0-.59.48-1.07,1.07-1.07h8.41c.59,0,1.07.48,1.07,1.07v2.9Zm-15.66,12.46c0-11.05-8.95-20-20-20s-20,8.95-20,20,8.95,20,20,20,20-8.95,20-20Zm-20,17.5c-9.66,0-17.5-7.83-17.5-17.5s7.84-17.5,17.5-17.5,17.5,7.84,17.5,17.5-7.84,17.5-17.5,17.5Zm0-32.5c-8.28,0-15,6.72-15,15s6.72,15,15,15,15-6.72,15-15-6.72-15-15-15Zm0,22.5c-4.14,0-7.5-3.36-7.5-7.5,0-1.23.3-2.38.82-3.4-.94-.63-1.56-1.7-1.56-2.91,0-1.93,1.57-3.5,3.5-3.5,1.57,0,2.88,1.04,3.32,2.45.46-.09.93-.14,1.42-.14,4.14,0,7.5,3.36,7.5,7.5s-3.36,7.5-7.5,7.5Zm7,2.91c-.55,0-1-.45-1-1s.45-1,1-1,1,.45,1,1-.45,1-1,1Zm-7-17.16c-.43,0-.86.04-1.27.12,0,.1.03.2.03.31,0,1.93-1.57,3.5-3.5,3.5-.45,0-.88-.09-1.27-.25-.47.92-.74,1.96-.74,3.06,0,3.73,3.02,6.75,6.75,6.75s6.75-3.02,6.75-6.75-3.02-6.75-6.75-6.75Z"/></svg>